<svg xmlns="http://www.w3.org/2000/svg" xmlns:xlink="http://www.w3.org/1999/xlink" class="brandLogo" width="161px" height="24px" viewBox="0 0 161 24" version="1.1" style="transition: all 0.3s ease 0s;"><g id="UI-for-Desktop-::-Home" stroke="none" stroke-width="1" fill="none" fill-rule="evenodd"><g id="unanet-::-home" transform="translate(-156.000000, -68.000000)" fill-rule="nonzero"><g id="menu" transform="translate(0.000000, 40.000000)"><g id="logo" transform="translate(156.000000, 28.000000)"><g id="Group" transform="translate(-0.000000, 0.000000)"><g id="Group-3" transform="translate(0.000000, 0.069786)"><path d="M22.1879815,9.68921912e-15 C21.2865948,9.68921912e-15 18.9984592,0.139572193 16.7103236,1.39572193 C16.7103236,1.39572193 16.6409861,1.46550802 16.5716487,1.46550802 C16.4329738,1.53529412 16.2942989,1.60508021 16.2249615,1.67486631 C16.0862866,1.8144385 15.9476117,1.8842246 15.8089368,2.02379679 C15.7395994,2.09358289 15.6702619,2.16336898 15.5315871,2.23315508 C15.3929122,2.30294118 15.2542373,2.44251337 15.1155624,2.58208556 C15.046225,2.58208556 15.046225,2.65187166 14.9768875,2.65187166 C14.7688752,2.79144385 14.6302003,3.00080214 14.422188,3.14037433 C14.422188,3.14037433 14.3528505,3.21016043 14.3528505,3.21016043 C13.174114,4.39652406 12.3420647,5.86203209 11.7873652,7.4671123 C11.440678,8.51390374 11.2326656,9.63048128 11.2326656,10.8168449 L11.2326656,22.4013369 L11.2326656,22.8898396 L11.6486903,22.8898396 C12.550077,22.8898396 14.8382126,22.7502674 17.1263482,21.4941176 C17.1263482,21.4941176 17.1956857,21.4243316 17.2650231,21.4243316 C17.403698,21.3545455 17.5423729,21.2847594 17.6117103,21.2149733 C17.7503852,21.1451872 17.8890601,21.005615 18.027735,20.9358289 C18.0970724,20.8660428 18.1664099,20.7962567 18.3050847,20.7264706 C18.4437596,20.6566845 18.5824345,20.5171123 18.7211094,20.3775401 C18.7904468,20.3775401 18.7904468,20.307754 18.8597843,20.307754 C19.0677966,20.1681818 19.2064715,19.9588235 19.4144838,19.8192513 C19.4144838,19.8192513 19.4838213,19.7494652 19.4838213,19.7494652 C20.6625578,18.5631016 21.4946071,17.0975936 22.0493066,15.4925134 C22.3959938,14.4457219 22.6040062,13.3291444 22.6040062,12.1427807 L22.6040062,9.68921912e-15 L22.1879815,9.68921912e-15 Z" id="Path" fill="#39C33A"/><path d="M23.0893683,9.68921912e-15 L23.0893683,9.68921912e-15 C23.990755,9.68921912e-15 26.2788906,0.139572193 28.5670262,1.39572193 C28.5670262,1.39572193 28.6363636,1.46550802 28.7057011,1.46550802 C28.844376,1.53529412 28.9830508,1.60508021 29.0523883,1.67486631 C29.1910632,1.74465241 29.3297381,1.8842246 29.4684129,1.9540107 C29.5377504,2.02379679 29.6070878,2.09358289 29.7457627,2.16336898 C29.8844376,2.23315508 30.0231125,2.37272727 30.1617874,2.51229947 C30.2311248,2.51229947 30.2311248,2.58208556 30.3004622,2.58208556 C30.5084746,2.72165775 30.6471495,2.93101604 30.8551618,3.07058824 C30.8551618,3.07058824 30.9244992,3.14037433 30.9244992,3.14037433 C32.1032357,4.32673797 32.9352851,5.79224599 33.4899846,7.3973262 C33.4899846,7.3973262 33.4899846,7.3973262 33.4899846,7.3973262 C33.8366718,8.44411765 34.0446841,9.56069519 34.0446841,10.7470588 L34.0446841,22.3315508 L34.0446841,22.8200535 L33.6286595,22.8200535 L33.6286595,22.8200535 C32.7272727,22.8200535 30.4391371,22.6804813 28.1510015,21.4243316 C28.1510015,21.4243316 28.0816641,21.3545455 28.0123267,21.3545455 C27.8736518,21.2847594 27.7349769,21.2149733 27.6656394,21.1451872 C27.5269646,21.0754011 27.3882897,20.9358289 27.2496148,20.8660428 C27.1802773,20.7962567 27.1109399,20.7264706 26.972265,20.6566845 C26.8335901,20.5868984 26.6949153,20.4473262 26.5562404,20.307754 C26.4869029,20.307754 26.4869029,20.2379679 26.4175655,20.2379679 C26.2095532,20.0983957 26.0708783,19.8890374 25.8628659,19.7494652 C25.8628659,19.7494652 25.7935285,19.6796791 25.7935285,19.6796791 C24.614792,18.4933155 23.7827427,17.0278075 23.2280431,15.4227273 C23.2280431,15.4227273 23.2280431,15.4227273 23.2280431,15.4227273 C22.8813559,14.3759358 22.6733436,13.2593583 22.6733436,12.0729947 L22.6733436,9.68921912e-15 L23.0893683,9.68921912e-15 Z" id="Path" fill="#ADE83A"/><path d="M10.8859784,22.8898396 L10.8859784,22.8898396 C9.98459168,22.8898396 7.69645609,22.7502674 5.40832049,21.4941176 C5.40832049,21.4941176 5.33898305,21.4243316 5.26964561,21.4243316 C5.13097072,21.3545455 4.99229584,21.2847594 4.9229584,21.2149733 C4.78428351,21.1451872 4.64560863,21.005615 4.50693374,20.9358289 C4.4375963,20.8660428 4.36825886,20.7962567 4.22958398,20.7264706 C4.09090909,20.6566845 3.95223421,20.5171123 3.81355932,20.3775401 C3.74422188,20.3775401 3.74422188,20.307754 3.67488444,20.307754 C3.46687211,20.1681818 3.32819723,19.9588235 3.1201849,19.8192513 C3.1201849,19.8192513 3.05084746,19.7494652 3.05084746,19.7494652 C1.87211094,18.5631016 1.04006163,17.0975936 0.485362096,15.4925134 C0.485362096,15.4925134 0.485362096,15.4925134 0.485362096,15.4925134 C0.208012327,14.3759358 -9.9798957e-14,13.2593583 -9.9798957e-14,12.0729947 L-9.9798957e-14,0.488502674 L-9.9798957e-14,9.68921912e-15 L0.416024653,9.68921912e-15 L0.416024653,9.68921912e-15 C1.3174114,9.68921912e-15 3.605547,0.139572193 5.89368259,1.39572193 C5.89368259,1.39572193 5.96302003,1.46550802 6.03235747,1.46550802 C6.17103236,1.53529412 6.30970724,1.60508021 6.37904468,1.67486631 C6.51771957,1.74465241 6.65639445,1.8842246 6.79506934,1.9540107 C6.86440678,2.02379679 6.93374422,2.09358289 7.07241911,2.16336898 C7.21109399,2.23315508 7.34976888,2.37272727 7.48844376,2.51229947 C7.5577812,2.51229947 7.5577812,2.58208556 7.62711864,2.58208556 C7.83513097,2.72165775 7.97380586,2.93101604 8.18181818,3.07058824 C8.18181818,3.07058824 8.25115562,3.14037433 8.25115562,3.14037433 C9.42989214,4.32673797 10.2619414,5.79224599 10.816641,7.3973262 C10.816641,7.3973262 10.816641,7.3973262 10.816641,7.3973262 C11.1633282,8.44411765 11.3713405,9.56069519 11.3713405,10.7470588 L11.3713405,22.8200535 L10.8859784,22.8898396 L10.8859784,22.8898396 Z" id="Path" fill="#52D6FF"/></g></g><g id="Group" transform="translate(46.909091, -0.000000)" fill="#10365A"><path d="M16.779661,0 L15.6009245,0 L15.6009245,12.4917112 C15.6009245,17.9350267 14.0061633,20.2379679 9.70724191,20.2379679 C5.47765794,20.2379679 3.605547,17.8652406 3.605547,12.2125668 L3.605547,2.44251337 C3.605547,0.628074866 3.05084746,0.0697860963 1.59476117,0.0697860963 L0.554699538,0.0697860963 L0.554699538,12.5614973 C0.554699538,19.2609626 3.53620955,23.168984 9.49922958,23.168984 C15.4622496,23.168984 18.651772,19.1911765 18.651772,12.2823529 L18.651772,2.23315508 C18.651772,0.767647059 18.027735,0 16.779661,0 Z M30.8551618,4.53609626 C26.2788906,4.53609626 23.2973806,7.4671123 23.2973806,12.4917112 L23.2973806,20.6566845 C23.2973806,22.0524064 24.0600924,22.7502674 25.1694915,22.7502674 L26.2788906,22.7502674 L26.2788906,12.5614973 C26.2788906,8.93262032 27.8043143,7.3973262 30.4391371,7.3973262 C33.559322,7.3973262 34.9460709,8.86283422 34.9460709,12.5614973 L34.9460709,20.7962567 C34.9460709,22.1221925 35.6394453,22.7502674 36.8181818,22.7502674 L37.9275809,22.7502674 L37.9275809,12.4219251 C37.9969183,7.11818182 35.2927581,4.53609626 30.8551618,4.53609626 Z M48.9522342,4.53609626 C45,4.53609626 42.8505393,6.69946524 42.8505393,8.30454545 L42.8505393,9.77005348 L42.9892142,9.77005348 C44.0292758,8.30454545 45.9707242,7.32754011 48.605547,7.32754011 C51.5177196,7.32754011 52.7657935,8.37433155 52.7657935,11.0262032 L52.7657935,11.8636364 L50.4083205,11.8636364 C45.0693374,11.8636364 42.1571649,13.9572193 42.1571649,17.7954545 C42.1571649,20.9358289 45.2773498,23.0991979 48.9522342,23.0991979 C53.94453,23.0991979 55.8859784,20.5171123 55.8859784,16.8882353 L55.8859784,11.3053476 C55.816641,6.90882353 53.459168,4.53609626 48.9522342,4.53609626 Z M52.835131,16.6090909 C52.835131,19.1911765 51.7257319,20.2379679 49.0215716,20.2379679 C46.7334361,20.2379679 45.2080123,18.9818182 45.2080123,17.4465241 C45.2080123,15.4925134 46.8027735,14.3759358 50.4083205,14.3759358 L52.835131,14.3759358 L52.835131,16.6090909 L52.835131,16.6090909 Z M67.9506934,4.53609626 C63.3744222,4.53609626 60.3929122,7.4671123 60.3929122,12.4917112 L60.3929122,20.6566845 C60.3929122,22.0524064 61.155624,22.7502674 62.2650231,22.7502674 L63.3744222,22.7502674 L63.3744222,12.5614973 C63.3744222,8.93262032 64.8998459,7.3973262 67.5346687,7.3973262 C70.6548536,7.3973262 72.0416025,8.86283422 72.0416025,12.5614973 L72.0416025,20.7962567 C72.0416025,22.1221925 72.7349769,22.7502674 73.9137134,22.7502674 L75.0231125,22.7502674 L75.0231125,12.4219251 C75.0924499,7.11818182 72.3882897,4.53609626 67.9506934,4.53609626 Z M94.229584,10.7470588 C94.229584,7.18796791 90.9707242,4.53609626 87.5038521,4.53609626 C82.788906,4.53609626 79.183359,8.37433155 79.183359,14.1665775 C79.183359,19.3307487 82.6502311,23.0991979 87.5038521,23.0991979 C91.4560863,23.0991979 93.4668721,21.6336898 93.4668721,19.8192513 L93.4668721,18.4933155 L93.3281972,18.4933155 C92.357473,19.4703209 90.6933744,20.307754 87.9198767,20.307754 C84.5916795,20.307754 82.5115562,18.2141711 82.2342065,15.213369 L86.6024653,15.213369 C92.7734977,15.1435829 94.229584,13.8874332 94.229584,10.7470588 Z M82.2342065,12.7708556 L82.2342065,12.0032086 C82.3035439,9.70026738 84.1756549,7.25775401 87.0878274,7.25775401 C89.8613251,7.25775401 91.1787365,8.93262032 91.1787365,10.886631 C91.1787365,12.2125668 90.4160247,12.6312834 86.1864407,12.7010695 L82.2342065,12.7708556 Z M105.46225,7.74625668 C107.057011,7.74625668 107.819723,6.97860963 107.819723,5.93181818 L107.819723,4.88502674 L101.718028,4.88502674 L101.718028,1.18636364 L101.371341,1.18636364 C100.955316,1.18636364 99.9152542,1.8144385 99.4992296,2.44251337 C99.0138675,3.21016043 98.7365177,4.18716578 98.7365177,5.23395722 L98.7365177,16.8882353 C98.7365177,21.005615 100.469954,23.0991979 104.422188,23.0991979 C106.502311,23.0991979 107.61171,22.3315508 107.61171,20.7962567 L107.61171,19.7494652 L107.473035,19.7494652 C106.848998,20.1681818 105.808937,20.2379679 104.699538,20.2379679 C102.758089,20.2379679 101.787365,19.1911765 101.787365,16.6090909 L101.787365,7.74625668 L105.46225,7.74625668 Z" id="Shape"/><g transform="translate(108.859784, 19.540107)" id="Path"><polygon points="0.970724191 0.767647059 0.485362096 0.767647059 0.485362096 0.55828877 1.66409861 0.55828877 1.66409861 0.767647059 1.17873652 0.767647059 1.17873652 2.23315508 0.970724191 2.23315508"/><polygon points="1.94144838 0.628074866 2.21879815 0.628074866 2.77349769 1.8842246 2.77349769 1.8842246 3.32819723 0.628074866 3.605547 0.628074866 3.605547 2.23315508 3.39753467 2.23315508 3.39753467 0.907219251 3.39753467 0.907219251 2.84283513 2.23315508 2.77349769 2.23315508 2.21879815 0.907219251 2.21879815 0.907219251 2.21879815 2.23315508 2.01078582 2.23315508 2.01078582 0.628074866"/></g></g></g></g></g></g></svg>